<?xml version="1.0" encoding="UTF-8" standalone="no"?>
<!-- Created with Inkscape (http://www.inkscape.org/) -->
<svg xmlns:dc="http://purl.org/dc/elements/1.1/" xmlns:cc="http://creativecommons.org/ns#" xmlns:rdf="http://www.w3.org/1999/02/22-rdf-syntax-ns#" xmlns:svg="http://www.w3.org/2000/svg" xmlns="http://www.w3.org/2000/svg" xmlns:sodipodi="http://sodipodi.sourceforge.net/DTD/sodipodi-0.dtd" xmlns:inkscape="http://www.inkscape.org/namespaces/inkscape" width="149.48958mm" height="46.899246mm" viewBox="0 0 149.48958 46.899246" version="1.1" id="svg8" inkscape:version="0.92.4 (5da689c313, 2019-01-14)" sodipodi:docname="storm.svg">
  <defs id="defs2"/>
  <sodipodi:namedview id="base" pagecolor="#ffffff" bordercolor="#666666" borderopacity="1.0" inkscape:pageopacity="0.0" inkscape:pageshadow="2" inkscape:zoom="0.98994949" inkscape:cx="450.1033" inkscape:cy="98.02633" inkscape:document-units="mm" inkscape:current-layer="g1013" showgrid="true" inkscape:snap-global="false" fit-margin-top="0" fit-margin-left="0" fit-margin-right="0" fit-margin-bottom="0" inkscape:window-width="1600" inkscape:window-height="877" inkscape:window-x="-8" inkscape:window-y="-8" inkscape:window-maximized="1">
    <inkscape:grid type="xygrid" id="grid1134" originx="3.9999999e-06" originy="-7.1542295"/>
  </sodipodi:namedview>
  <metadata id="metadata5">
    <rdf:RDF>
      <cc:Work rdf:about="">
        <dc:format>image/svg+xml</dc:format>
        <dc:type rdf:resource="http://purl.org/dc/dcmitype/StillImage"/>
        <dc:title/>
      </cc:Work>
    </rdf:RDF>
  </metadata>
  <g inkscape:label="Layer 1" inkscape:groupmode="layer" id="layer1" transform="translate(240.52262,-180.58502)">
    <g id="g950" transform="matrix(0.7585025,0,0,0.7585025,-23.280514,51.054556)">
      <g aria-label="STORM" style="font-style:normal;font-variant:normal;font-weight:normal;font-stretch:normal;font-size:27.89212608px;line-height:125%;font-family:Montserrat;-inkscape-font-specification:Montserrat;letter-spacing:0px;word-spacing:0px;fill:#3c3c3b;fill-opacity:1;stroke:none;stroke-width:2.09190941px;stroke-linecap:butt;stroke-linejoin:miter;stroke-opacity:1" id="text999">
        <path d="m -201.43306,198.79317 q -1.4225,0 -2.34294,0.58574 -0.92044,0.58573 -0.92044,1.78509 0,1.17147 0.92044,1.81299 0.92044,0.61363 3.9049,1.33882 3.01235,0.7252 4.51852,2.03613 1.53407,1.31093 1.53407,3.87701 0,2.53818 -1.92456,4.12803 -1.92455,1.58985 -5.04847,1.58985 -4.57431,0 -8.11661,-3.15181 l 2.06402,-2.4824 q 2.95656,2.56608 6.13627,2.56608 1.58985,0 2.51029,-0.66941 0.94833,-0.69731 0.94833,-1.81299 0,-1.14358 -0.89255,-1.75721 -0.86465,-0.64152 -3.01235,-1.14357 -2.14769,-0.52995 -3.26338,-0.94834 -1.11568,-0.44627 -1.98034,-1.14357 -1.72931,-1.31093 -1.72931,-4.01647 0,-2.70554 1.95245,-4.15593 1.98034,-1.47828 4.88112,-1.47828 1.86877,0 3.70965,0.61363 1.84088,0.61363 3.17971,1.72931 l -1.75721,2.4824 q -0.86465,-0.78098 -2.34294,-1.28304 -1.47828,-0.50206 -2.92867,-0.50206 z" style="fill:#3c3c3b;fill-opacity:1;stroke-width:2.09190941px" id="path1091" inkscape:connector-curvature="0"/>
        <path d="m -182.35877,199.23945 v 16.48424 h -3.29127 v -16.48424 h -5.91313 v -3.01235 h 15.11753 v 3.01235 z" style="fill:#3c3c3b;fill-opacity:1;stroke-width:2.09190941px" id="path1093" inkscape:connector-curvature="0"/>
        <path d="m -159.54344,200.8293 q -1.98035,-2.06402 -4.88113,-2.06402 -2.90078,0 -4.90901,2.06402 -1.98034,2.06402 -1.98034,5.02058 0,2.92867 1.98034,4.99269 2.00823,2.06402 4.90901,2.06402 2.90078,0 4.88113,-2.06402 2.00823,-2.06402 2.00823,-4.99269 0,-2.95656 -2.00823,-5.02058 z m 2.42661,12.21675 q -2.95656,2.87289 -7.30774,2.87289 -4.35117,0 -7.30773,-2.87289 -2.95657,-2.90078 -2.95657,-7.19617 0,-4.32328 2.95657,-7.19617 2.95656,-2.90078 7.30773,-2.90078 4.35118,0 7.30774,2.90078 2.95657,2.87289 2.95657,7.19617 0,4.29539 -2.95657,7.19617 z" style="fill:#3c3c3b;fill-opacity:1;stroke-width:2.09190941px" id="path1095" inkscape:connector-curvature="0"/>
        <path d="m -134.44489,202.55861 q 0,4.82534 -4.21171,6.08048 l 5.10426,7.0846 h -4.18382 l -4.65799,-6.55465 h -4.32328 v 6.55465 h -3.29127 V 196.2271 h 7.25196 q 4.46274,0 6.38729,1.50617 1.92456,1.50618 1.92456,4.82534 z m -8.17239,3.62598 q 2.78921,0 3.79333,-0.86466 1.00411,-0.86466 1.00411,-2.76132 0,-1.92456 -1.03201,-2.62186 -1.03201,-0.72519 -3.68176,-0.72519 h -4.18382 v 6.97303 z" style="fill:#3c3c3b;fill-opacity:1;stroke-width:2.09190941px" id="path1097" inkscape:connector-curvature="0"/>
        <path d="m -126.39757,215.72369 h -3.29127 V 196.2271 h 5.13215 l 5.88524,12.24464 5.88524,-12.24464 h 5.10426 v 19.49659 h -3.29128 v -15.2291 l -6.80567,13.52768 h -1.84088 l -6.77779,-13.52768 z" style="fill:#3c3c3b;fill-opacity:1;stroke-width:2.09190941px" id="path1099" inkscape:connector-curvature="0"/>
      </g>
      <g aria-label="APACHE" style="font-style:normal;font-variant:normal;font-weight:normal;font-stretch:normal;font-size:17.60447311px;line-height:125%;font-family:Montserrat;-inkscape-font-specification:Montserrat;letter-spacing:0px;word-spacing:0px;fill:#3c3c3b;fill-opacity:1;stroke:none;stroke-width:1.32033551px;stroke-linecap:butt;stroke-linejoin:miter;stroke-opacity:1" id="text1003">
        <path d="m -197.40477,191.1171 -1.39076,-3.1512 h -6.7073 l -1.37315,3.1512 h -1.49638 l 5.5278,-12.32314 h 1.46117 l 5.5102,12.32314 z m -7.51711,-4.45394 h 5.56301 l -2.79911,-6.33761 z" style="font-style:normal;font-variant:normal;font-weight:300;font-stretch:normal;font-family:Montserrat;-inkscape-font-specification:'Montserrat Light';fill:#3c3c3b;fill-opacity:1;stroke-width:1.32033551px" id="path1102" inkscape:connector-curvature="0"/>
        <path d="m -189.29351,178.79396 q 2.28858,0 3.5385,1.09148 1.26752,1.07387 1.26752,3.04558 0,2.02451 -1.26752,3.1512 -1.24992,1.12668 -3.5385,1.12668 h -3.22162 v 3.9082 h -1.40836 v -12.32314 z m -0.0528,7.11221 q 1.67243,0 2.58786,-0.73939 0.91543,-0.75699 0.91543,-2.20056 0,-1.40835 -0.91543,-2.13014 -0.91543,-0.73938 -2.58786,-0.73938 h -3.1688 v 5.80947 z" style="font-style:normal;font-variant:normal;font-weight:300;font-stretch:normal;font-family:Montserrat;-inkscape-font-specification:'Montserrat Light';fill:#3c3c3b;fill-opacity:1;stroke-width:1.32033551px" id="path1104" inkscape:connector-curvature="0"/>
        <path d="m -173.64561,191.1171 -1.39076,-3.1512 h -6.7073 l -1.37315,3.1512 h -1.49638 l 5.52781,-12.32314 h 1.46117 l 5.5102,12.32314 z m -7.51711,-4.45394 h 5.56301 l -2.79911,-6.33761 z" style="font-style:normal;font-variant:normal;font-weight:300;font-stretch:normal;font-family:Montserrat;-inkscape-font-specification:'Montserrat Light';fill:#3c3c3b;fill-opacity:1;stroke-width:1.32033551px" id="path1106" inkscape:connector-curvature="0"/>
        <path d="m -161.54831,181.52266 q -0.72179,-0.72179 -1.69003,-1.12669 -0.95064,-0.42251 -1.9541,-0.42251 -1.37315,0 -2.53504,0.66897 -1.14429,0.65137 -1.81326,1.79566 -0.66897,1.14429 -0.66897,2.49984 0,1.33794 0.66897,2.48223 0.66897,1.14429 1.81326,1.81326 1.16189,0.66897 2.53504,0.66897 1.00346,0 1.9541,-0.3873 0.95064,-0.4049 1.69003,-1.10908 l 0.86262,0.93303 q -0.93304,0.88023 -2.13015,1.39076 -1.17949,0.49292 -2.44702,0.49292 -1.74284,0 -3.20401,-0.82741 -1.46117,-0.84501 -2.32379,-2.28858 -0.84502,-1.44357 -0.84502,-3.1688 0,-1.70764 0.86262,-3.1336 0.86262,-1.44357 2.32379,-2.27098 1.47878,-0.84501 3.23923,-0.84501 1.24991,0 2.42941,0.47532 1.1795,0.47532 2.07733,1.33794 z" style="font-style:normal;font-variant:normal;font-weight:300;font-stretch:normal;font-family:Montserrat;-inkscape-font-specification:'Montserrat Light';fill:#3c3c3b;fill-opacity:1;stroke-width:1.32033551px" id="path1108" inkscape:connector-curvature="0"/>
        <path d="m -158.16441,178.79396 h 1.40836 v 5.58062 h 7.42909 v -5.58062 h 1.40836 v 12.32314 h -1.40836 v -5.45739 h -7.42909 v 5.45739 h -1.40836 z" style="font-style:normal;font-variant:normal;font-weight:300;font-stretch:normal;font-family:Montserrat;-inkscape-font-specification:'Montserrat Light';fill:#3c3c3b;fill-opacity:1;stroke-width:1.32033551px" id="path1110" inkscape:connector-curvature="0"/>
        <path d="m -144.17022,178.79396 h 8.36212 v 1.30274 h -6.95376 v 4.13705 h 6.21437 v 1.28512 h -6.21437 v 4.29549 h 7.18262 v 1.30274 h -8.59098 z" style="font-style:normal;font-variant:normal;font-weight:300;font-stretch:normal;font-family:Montserrat;-inkscape-font-specification:'Montserrat Light';fill:#3c3c3b;fill-opacity:1;stroke-width:1.32033551px" id="path1112" inkscape:connector-curvature="0"/>
      </g>
    </g>
    <g id="g1013" transform="translate(-94.588542,58.208333)">
      <path sodipodi:nodetypes="csscccccccccccccsccssssccccccccsccsccscccsccssscsccccccsccscc" inkscape:connector-curvature="0" id="path960" d="m -128.54289,169.04174 c 0.0368,-0.10106 3.23286,-2.65229 7.10236,-5.66941 8.58523,-6.69405 8.11642,-6.32061 8.11642,-6.46522 0,-0.0654 -3.12581,-0.14278 -6.94624,-0.1718 l -6.94624,-0.0528 2.07958,-1.58985 c 1.14376,-0.87443 3.80223,-2.96631 5.90772,-4.64864 l 3.82814,-3.05877 5.40347,-0.0752 c 4.94495,-0.0688 5.50315,-0.11215 6.57839,-0.51125 2.39855,-0.89028 3.632986,-2.44358 3.63844,-4.57827 0.0046,-1.78907 -0.76462,-2.96932 -2.51323,-3.85629 -1.5826,-0.80277 -2.98682,-1.04542 -6.05865,-1.04693 l -2.3537,-0.002 0.79948,-1.23694 c 0.94625,-1.46406 1.26934,-2.48028 1.26561,-3.98093 -0.004,-1.47532 -0.57411,-2.6971 -1.84192,-3.94507 -3.24496,-3.19417 -9.1159,-4.04298 -13.44773,-1.94423 -1.58808,0.76941 -6.68675,4.80033 -5.54843,4.3865 0.22075,-0.0803 1.62054,-0.19028 3.11064,-0.24449 4.28915,-0.15604 6.81297,0.56504 8.90602,2.54455 2.68657,2.54086 3.50031,6.5817 1.95678,9.71705 -1.60727,3.26482 -5.52379,5.27632 -11.5652,5.93982 -1.23583,0.13572 -5.2446,0.19776 -10.43403,0.16148 l -8.42716,-0.0589 2.70758,-2.11677 c 1.48916,-1.16423 4.30176,-3.35422 6.25022,-4.86666 l 3.54263,-2.7499 h 2.24551 2.24552 l -1.07201,0.86389 c -0.5896,0.47513 -2.59624,2.03296 -4.4592,3.46185 l -3.38719,2.59797 4.49098,0.0614 c 6.29437,0.086 9.16991,-0.30153 11.98939,-1.61561 1.61078,-0.75075 2.72657,-1.75325 3.37453,-3.03192 0.43196,-0.85244 0.49539,-1.20823 0.43162,-2.42098 -0.19628,-3.73275 -2.88802,-5.73646 -7.70623,-5.73646 -3.63009,0 -7.27495,0.93124 -12.82995,3.27798 -1.43492,0.60618 -2.63536,1.07607 -2.66767,1.04419 -0.13184,-0.13011 9.86133,-9.65166 11.80016,-11.24325 1.82992,-1.5022 3.74379,-2.62141 5.56495,-3.25434 1.41885,-0.49311 1.82745,-0.54217 4.56853,-0.54851 2.55061,-0.006 3.25373,0.063 4.60444,0.45168 6.46064,1.8588 10.26752,7.05758 8.44051,11.52654 -0.12631,0.30897 -0.0127,0.3512 0.94525,0.3512 3.06976,0 6.179704,1.84929 7.328001,4.3575 1.645943,3.59522 0.07085,7.95239 -3.535451,9.77982 -1.8889,0.95718 -3.16779,1.14973 -8.35046,1.2572 l -4.8165,0.0999 -2.59731,1.93595 -2.59731,1.93596 7.01166,0.10034 7.01165,0.10035 -1.103,0.84688 c -0.60665,0.46578 -4.18739,3.23294 -7.9572,6.14924 -3.76979,2.9163 -7.63641,5.89922 -8.59247,6.62872 l -1.7383,1.32635 h -1.91014 c -1.0709,0 -1.88076,-0.0807 -1.84326,-0.18374 z" style="fill:#225593;fill-opacity:1;stroke-width:0.20068711"/>
      <path sodipodi:nodetypes="ccccc" inkscape:connector-curvature="0" id="path960-3" d="m -115.40769,147.39049 4.6472,-0.10396 -3.46672,2.91478 -4.64526,-0.0409 z" style="fill:#7a7572;fill-opacity:1;stroke-width:0.20068711"/>
      <path sodipodi:nodetypes="ccccccccccccccccccc" inkscape:connector-curvature="0" id="path995" d="m -118.69161,150.11248 c -0.31156,-0.0445 -0.46062,0.30865 -0.70531,0.43489 -2.55854,2.05004 -5.14806,4.0618 -7.74973,6.05744 0.1287,0.17025 0.58381,0.0364 0.83425,0.0901 3.65351,0.0748 7.30852,0.0401 10.96172,0.14165 0.65735,0.0402 1.35502,-0.0214 1.98851,0.12002 -1.02991,0.93389 -2.17023,1.74878 -3.25335,2.6233 l -11.0361,8.67768 -1.25243,1.01837 4.06207,-0.005 c 0.12467,-0.0894 0.29488,-0.21832 0.42461,-0.29052 l 0.16156,-0.13512 c 0,0 14.08453,-10.85464 18.85063,-14.54361 -0.0939,-0.16319 -0.4966,-0.0284 -0.71418,-0.07 -4.39083,-0.0432 -8.78164,-0.10455 -13.17176,-0.19451 1.64296,-1.30451 3.37452,-2.5113 5.02466,-3.79683 -0.32556,-0.0981 -0.74323,-0.0259 -1.10341,-0.0596 -1.1073,-0.0187 -2.21454,-0.0457 -3.32168,-0.0687 z" style="opacity:1;fill:#ea9941;fill-opacity:1;stroke:none;stroke-width:0.03040869;stroke-linecap:round;stroke-linejoin:bevel;stroke-miterlimit:4;stroke-dasharray:none;stroke-opacity:1"/>
      <path inkscape:connector-curvature="0" id="path974" d="m -140.53878,137.14594 c 0.37453,-0.43232 5.48527,-5.39325 5.73974,-5.57149 0.30784,-0.21562 3.0337,-0.80289 4.50267,-0.97007 0.26481,-0.0301 0.54105,-0.0645 0.61387,-0.0764 0.10509,-0.0171 0.008,0.10071 -0.47357,0.57129 -0.92515,0.90513 -1.62143,1.78077 -2.251,2.83087 -0.21099,0.35192 -0.31115,0.47241 -0.41418,0.49823 -0.57072,0.14303 -3.45278,1.23449 -5.35604,2.02839 -1.26521,0.52774 -2.45272,0.98767 -2.55015,0.98767 -0.0385,0 0.0464,-0.13434 0.18866,-0.29853 z" style="opacity:1;fill:#326ba3;fill-opacity:1;stroke:none;stroke-width:0.03040869;stroke-linecap:round;stroke-linejoin:bevel;stroke-miterlimit:4;stroke-dasharray:none;stroke-opacity:1"/>
      <path inkscape:connector-curvature="0" id="path978" d="m -125.38307,130.36019 c -1.42777,0.005 -2.8641,0.0791 -4.27622,0.24994 -0.5228,0.37232 -0.91163,0.90882 -1.35335,1.37097 -0.63335,0.72514 -1.19085,1.52237 -1.67039,2.3538 0.0776,0.14115 0.32178,-0.0538 0.45775,-0.0494 2.3579,-0.67204 4.79138,-1.16678 7.25379,-1.07418 1.38285,-0.008 2.78687,0.22604 4.05628,0.76937 1.39488,0.59845 2.55053,1.77554 2.98346,3.24706 0.28987,0.99448 0.41745,2.073 0.22875,3.09838 -0.46941,1.78426 -1.93498,3.13829 -3.56949,3.90453 -2.20701,1.09376 -4.69039,1.48341 -7.13066,1.61486 -3.11697,0.0591 -6.23668,0.10607 -9.35315,7.6e-4 2.90258,-2.24172 5.83765,-4.44373 8.6837,-6.75712 0.17767,-0.1583 -0.16495,-0.14371 -0.26168,-0.14301 -1.37927,-0.0312 -2.76282,-0.0267 -4.14005,-0.013 -4.15331,3.23509 -8.31178,6.46359 -12.45975,9.70554 0.12991,0.16986 0.58386,0.0358 0.83457,0.0893 4.9669,0.0702 9.93485,0.0265 14.90202,3.9e-4 1.53612,0.002 3.07822,-0.0221 4.59508,-0.29145 2.78319,-0.45402 5.63253,-1.24115 7.87447,-3.02826 1.57957,-1.25944 2.72251,-3.12753 2.93068,-5.15329 0.078,-1.32273 0.0572,-2.68941 -0.44928,-3.93546 -0.51367,-1.37895 -1.34414,-2.64021 -2.46111,-3.6047 -1.42866,-1.32304 -3.32935,-2.02379 -5.24381,-2.2368 -0.80591,-0.1064 -1.61982,-0.12048 -2.43161,-0.11829 z" style="opacity:1;fill:#318fbf;fill-opacity:1;stroke:none;stroke-width:0.03040869;stroke-linecap:round;stroke-linejoin:bevel;stroke-miterlimit:4;stroke-dasharray:none;stroke-opacity:1"/>
    </g>
    <g aria-label="Distributed · Resilient · Real-time" style="font-style:normal;font-variant:normal;font-weight:normal;font-stretch:normal;font-size:7.45371103px;line-height:125%;font-family:Montserrat;-inkscape-font-specification:Montserrat;letter-spacing:0px;word-spacing:0px;fill:#2b629c;fill-opacity:1;stroke:none;stroke-width:0.55902833px;stroke-linecap:butt;stroke-linejoin:miter;stroke-opacity:1" id="text1017" transform="matrix(0.7585025,0,0,0.7585025,-58.085612,54.936886)">
      <path d="m -160.63228,220.06463 q 0.75283,0 1.36403,0.34287 0.61121,0.34287 0.96153,0.93917 0.35778,0.59629 0.35778,1.32676 0,0.73046 -0.35778,1.32676 -0.35032,0.5963 -0.96898,0.93917 -0.61866,0.34287 -1.37894,0.34287 h -2.08704 v -5.2176 z m 0.007,4.66602 q 0.57393,0 1.04352,-0.26833 0.47704,-0.26834 0.75282,-0.73792 0.27579,-0.46958 0.27579,-1.04352 0,-0.58139 -0.28324,-1.05097 -0.27579,-0.46959 -0.75283,-0.73792 -0.47703,-0.27579 -1.05842,-0.27579 h -1.4982 v 4.11445 z" style="font-style:normal;font-variant:normal;font-weight:300;font-stretch:normal;font-family:Montserrat;-inkscape-font-specification:'Montserrat Light';fill:#2b629c;fill-opacity:1;stroke-width:0.55902833px" id="path1023" inkscape:connector-curvature="0"/>
      <path d="m -156.94222,221.36157 h 0.57393 v 3.92066 h -0.57393 z m 0.28324,-1.52801 q 0.16398,0 0.26833,0.11926 0.11181,0.11181 0.11181,0.28324 0,0.17144 -0.11181,0.28325 -0.10435,0.1118 -0.26833,0.1118 -0.16398,0 -0.27579,-0.1118 -0.10435,-0.11181 -0.10435,-0.28325 0,-0.17143 0.10435,-0.28324 0.11181,-0.11926 0.27579,-0.11926 z" style="font-style:normal;font-variant:normal;font-weight:300;font-stretch:normal;font-family:Montserrat;-inkscape-font-specification:'Montserrat Light';fill:#2b629c;fill-opacity:1;stroke-width:0.55902833px" id="path1025" inkscape:connector-curvature="0"/>
      <path d="m -152.87564,222.13676 q -0.23107,-0.14907 -0.51431,-0.23106 -0.28324,-0.082 -0.55157,-0.082 -0.35033,0 -0.56648,0.13417 -0.20871,0.12671 -0.20871,0.39505 0,0.18634 0.11926,0.3056 0.11926,0.11926 0.29815,0.1938 0.17889,0.0671 0.49195,0.16398 0.40995,0.12671 0.66338,0.24597 0.26088,0.11926 0.43976,0.34287 0.17889,0.22361 0.17889,0.58884 0,0.54413 -0.4174,0.82737 -0.40996,0.28324 -1.02116,0.28324 -0.42486,0 -0.82736,-0.14162 -0.4025,-0.14908 -0.67829,-0.40996 l 0.22361,-0.42486 q 0.24597,0.23107 0.5963,0.36523 0.35777,0.13417 0.7081,0.13417 0.37268,0 0.60375,-0.14907 0.23852,-0.14908 0.23852,-0.43977 0,-0.28324 -0.23107,-0.42486 -0.23106,-0.14163 -0.70065,-0.27579 -0.39504,-0.11926 -0.64101,-0.23107 -0.24598,-0.11926 -0.42487,-0.33541 -0.17143,-0.21616 -0.17143,-0.56649 0,-0.52921 0.38759,-0.79754 0.38759,-0.27579 0.97644,-0.27579 0.34287,0 0.67083,0.0969 0.32796,0.0969 0.58139,0.26088 z" style="font-style:normal;font-variant:normal;font-weight:300;font-stretch:normal;font-family:Montserrat;-inkscape-font-specification:'Montserrat Light';fill:#2b629c;fill-opacity:1;stroke-width:0.55902833px" id="path1027" inkscape:connector-curvature="0"/>
      <path d="m -149.5429,225.01389 q -0.43977,0.2907 -0.9019,0.2907 -0.44722,0 -0.71556,-0.27579 -0.26833,-0.28324 -0.26833,-0.83482 v -2.25847 h -0.56648 v -0.45468 h 0.56648 v -1.02861 h 0.57394 v 1.02861 h 1.24477 v 0.45468 h -1.24477 v 2.16158 q 0,0.35032 0.12671,0.5143 0.13417,0.15653 0.39505,0.15653 0.3056,-0.0149 0.62611,-0.20125 z" style="font-style:normal;font-variant:normal;font-weight:300;font-stretch:normal;font-family:Montserrat;-inkscape-font-specification:'Montserrat Light';fill:#2b629c;fill-opacity:1;stroke-width:0.55902833px" id="path1029" inkscape:connector-curvature="0"/>
      <path d="m -148.07731,222.23366 q 0.19379,-0.43232 0.55157,-0.65593 0.35778,-0.23106 0.85718,-0.23852 v 0.56649 q -0.61121,-0.007 -0.98389,0.34287 -0.37269,0.34287 -0.42486,0.94662 v 2.08704 h -0.58139 v -3.92066 h 0.58139 z" style="font-style:normal;font-variant:normal;font-weight:300;font-stretch:normal;font-family:Montserrat;-inkscape-font-specification:'Montserrat Light';fill:#2b629c;fill-opacity:1;stroke-width:0.55902833px" id="path1031" inkscape:connector-curvature="0"/>
      <path d="m -145.89268,221.36157 h 0.57394 v 3.92066 h -0.57394 z m 0.28324,-1.52801 q 0.16398,0 0.26834,0.11926 0.1118,0.11181 0.1118,0.28324 0,0.17144 -0.1118,0.28325 -0.10436,0.1118 -0.26834,0.1118 -0.16398,0 -0.27578,-0.1118 -0.10436,-0.11181 -0.10436,-0.28325 0,-0.17143 0.10436,-0.28324 0.1118,-0.11926 0.27578,-0.11926 z" style="font-style:normal;font-variant:normal;font-weight:300;font-stretch:normal;font-family:Montserrat;-inkscape-font-specification:'Montserrat Light';fill:#2b629c;fill-opacity:1;stroke-width:0.55902833px" id="path1033" inkscape:connector-curvature="0"/>
      <path d="m -141.76647,221.33921 q 0.55158,0 0.97644,0.25343 0.43231,0.25343 0.67083,0.7081 0.23852,0.44722 0.23852,1.02861 0,0.57394 -0.23852,1.02862 -0.23106,0.44722 -0.65592,0.70065 -0.42486,0.24597 -0.97644,0.24597 -0.52176,0 -0.91681,-0.22361 -0.38759,-0.23107 -0.6112,-0.64102 v 0.84227 h -0.58139 v -5.53066 h 0.58139 v 2.45227 q 0.22361,-0.40995 0.6112,-0.63356 0.39505,-0.23107 0.9019,-0.23107 z m -0.10435,3.45107 q 0.4025,0 0.72301,-0.18634 0.32051,-0.1938 0.4994,-0.52921 0.17889,-0.33542 0.17889,-0.76028 0,-0.41741 -0.17889,-0.75283 -0.17889,-0.34287 -0.4994,-0.52921 -0.32051,-0.1938 -0.72301,-0.1938 -0.40995,0 -0.73046,0.1938 -0.32051,0.18634 -0.4994,0.52176 -0.17889,0.33542 -0.17889,0.76028 0,0.42486 0.17889,0.76028 0.17889,0.33541 0.4994,0.52921 0.32051,0.18634 0.73046,0.18634 z" style="font-style:normal;font-variant:normal;font-weight:300;font-stretch:normal;font-family:Montserrat;-inkscape-font-specification:'Montserrat Light';fill:#2b629c;fill-opacity:1;stroke-width:0.55902833px" id="path1035" inkscape:connector-curvature="0"/>
      <path d="m -135.4548,221.36157 v 3.92066 h -0.58139 v -0.887 q -0.38014,0.89445 -1.49075,0.90936 -0.68574,0 -1.08078,-0.40996 -0.3876,-0.40995 -0.3876,-1.11805 v -2.41501 h 0.58139 v 2.26593 q 0,0.52176 0.2907,0.81991 0.29069,0.29815 0.79755,0.29815 0.60375,-0.007 0.94662,-0.40995 0.34287,-0.40251 0.34287,-1.05098 v -1.92306 z" style="font-style:normal;font-variant:normal;font-weight:300;font-stretch:normal;font-family:Montserrat;-inkscape-font-specification:'Montserrat Light';fill:#2b629c;fill-opacity:1;stroke-width:0.55902833px" id="path1037" inkscape:connector-curvature="0"/>
      <path d="m -132.01503,225.01389 q -0.43977,0.2907 -0.9019,0.2907 -0.44722,0 -0.71556,-0.27579 -0.26833,-0.28324 -0.26833,-0.83482 v -2.25847 h -0.56648 v -0.45468 h 0.56648 v -1.02861 h 0.57394 v 1.02861 h 1.24476 v 0.45468 h -1.24476 v 2.16158 q 0,0.35032 0.12671,0.5143 0.13417,0.15653 0.39504,0.15653 0.30561,-0.0149 0.62612,-0.20125 z" style="font-style:normal;font-variant:normal;font-weight:300;font-stretch:normal;font-family:Montserrat;-inkscape-font-specification:'Montserrat Light';fill:#2b629c;fill-opacity:1;stroke-width:0.55902833px" id="path1039" inkscape:connector-curvature="0"/>
      <path d="m -129.6387,221.33921 q 0.93172,0 1.4013,0.5963 0.47704,0.58884 0.43232,1.60255 h -3.2051 q 0.0745,0.58139 0.46213,0.93171 0.38759,0.35033 0.96153,0.35033 0.35778,0 0.67083,-0.12672 0.31306,-0.13416 0.54412,-0.37268 l 0.32051,0.33541 q -0.28324,0.31306 -0.69319,0.4845 -0.4025,0.16398 -0.88699,0.16398 -0.57394,0 -1.02116,-0.24597 -0.43977,-0.25343 -0.68574,-0.70065 -0.24598,-0.45468 -0.24598,-1.03607 0,-0.57394 0.24598,-1.02116 0.24597,-0.45467 0.68574,-0.7081 0.44722,-0.25343 1.0137,-0.25343 z m 1.31186,1.73672 q -0.0298,-0.57394 -0.3876,-0.90935 -0.35032,-0.34288 -0.92426,-0.34288 -0.56648,0 -0.93916,0.34288 -0.37269,0.33541 -0.43232,0.90935 z" style="font-style:normal;font-variant:normal;font-weight:300;font-stretch:normal;font-family:Montserrat;-inkscape-font-specification:'Montserrat Light';fill:#2b629c;fill-opacity:1;stroke-width:0.55902833px" id="path1041" inkscape:connector-curvature="0"/>
      <path d="m -123.19951,219.75157 v 5.53066 h -0.58139 v -0.84227 q -0.22361,0.41741 -0.61865,0.64847 -0.3876,0.22361 -0.90936,0.22361 -0.55157,0 -0.98389,-0.25342 -0.43231,-0.25343 -0.67083,-0.70811 -0.23852,-0.45467 -0.23852,-1.03606 0,-0.58139 0.23852,-1.02862 0.23852,-0.45467 0.66338,-0.70064 0.43231,-0.25343 0.98389,-0.25343 0.52176,0 0.91681,0.23106 0.4025,0.22362 0.61865,0.64848 v -2.45973 z m -1.99759,5.06107 q 0.40995,0 0.73046,-0.18634 0.32051,-0.1938 0.4994,-0.52921 0.18634,-0.34287 0.18634,-0.76774 0,-0.42486 -0.18634,-0.76773 -0.17889,-0.34287 -0.4994,-0.52921 -0.32051,-0.1938 -0.73046,-0.1938 -0.40996,0 -0.73792,0.1938 -0.32051,0.18634 -0.50685,0.52921 -0.17889,0.34287 -0.17889,0.76773 0,0.42487 0.17889,0.76774 0.18634,0.33541 0.50685,0.52921 0.32796,0.18634 0.73792,0.18634 z" style="font-style:normal;font-variant:normal;font-weight:300;font-stretch:normal;font-family:Montserrat;-inkscape-font-specification:'Montserrat Light';fill:#2b629c;fill-opacity:1;stroke-width:0.55902833px" id="path1043" inkscape:connector-curvature="0"/>
      <path d="m -119.44679,222.80014 q 0.16398,0 0.26833,0.11926 0.1118,0.11181 0.1118,0.28324 0,0.17144 -0.1118,0.28324 -0.10435,0.11181 -0.26833,0.11181 -0.16399,0 -0.27579,-0.11181 -0.10435,-0.1118 -0.10435,-0.28324 0,-0.17143 0.10435,-0.28324 0.1118,-0.11926 0.27579,-0.11926 z" style="font-style:normal;font-variant:normal;font-weight:300;font-stretch:normal;font-family:Montserrat;-inkscape-font-specification:'Montserrat Light';fill:#2b629c;fill-opacity:1;stroke-width:0.55902833px" id="path1045" inkscape:connector-curvature="0"/>
      <path d="m -112.24721,225.28223 -1.0957,-1.66963 q -0.2087,0.0149 -0.33541,0.0149 h -1.38639 v 1.65473 h -0.5963 v -5.2176 h 1.98269 q 0.97643,0 1.5131,0.46213 0.54412,0.45468 0.54412,1.28949 0,0.64102 -0.3056,1.07334 -0.3056,0.43231 -0.87208,0.6112 l 1.22986,1.78144 z m -1.43111,-2.2063 q 0.71555,0 1.09569,-0.31306 0.3876,-0.32051 0.3876,-0.93171 0,-0.5963 -0.3876,-0.9019 -0.38014,-0.31306 -1.09569,-0.31306 h -1.38639 v 2.45973 z" style="font-style:normal;font-variant:normal;font-weight:300;font-stretch:normal;font-family:Montserrat;-inkscape-font-specification:'Montserrat Light';fill:#2b629c;fill-opacity:1;stroke-width:0.55902833px" id="path1047" inkscape:connector-curvature="0"/>
      <path d="m -108.80616,221.33921 q 0.93172,0 1.4013,0.5963 0.47704,0.58884 0.43231,1.60255 h -3.20509 q 0.0745,0.58139 0.46213,0.93171 0.38759,0.35033 0.96153,0.35033 0.35778,0 0.67083,-0.12672 0.31306,-0.13416 0.54412,-0.37268 l 0.32051,0.33541 q -0.28324,0.31306 -0.69319,0.4845 -0.4025,0.16398 -0.88699,0.16398 -0.57394,0 -1.02116,-0.24597 -0.43977,-0.25343 -0.68574,-0.70065 -0.24598,-0.45468 -0.24598,-1.03607 0,-0.57394 0.24598,-1.02116 0.24597,-0.45467 0.68574,-0.7081 0.44722,-0.25343 1.0137,-0.25343 z m 1.31186,1.73672 q -0.0298,-0.57394 -0.3876,-0.90935 -0.35032,-0.34288 -0.92426,-0.34288 -0.56648,0 -0.93917,0.34288 -0.37268,0.33541 -0.43231,0.90935 z" style="font-style:normal;font-variant:normal;font-weight:300;font-stretch:normal;font-family:Montserrat;-inkscape-font-specification:'Montserrat Light';fill:#2b629c;fill-opacity:1;stroke-width:0.55902833px" id="path1049" inkscape:connector-curvature="0"/>
      <path d="m -103.90243,222.13676 q -0.23106,-0.14907 -0.5143,-0.23106 -0.28325,-0.082 -0.55158,-0.082 -0.35032,0 -0.56648,0.13417 -0.20871,0.12671 -0.20871,0.39505 0,0.18634 0.11926,0.3056 0.11926,0.11926 0.29815,0.1938 0.17889,0.0671 0.49195,0.16398 0.40995,0.12671 0.66338,0.24597 0.26088,0.11926 0.43977,0.34287 0.17889,0.22361 0.17889,0.58884 0,0.54413 -0.41741,0.82737 -0.40996,0.28324 -1.02116,0.28324 -0.42486,0 -0.82736,-0.14162 -0.4025,-0.14908 -0.67829,-0.40996 l 0.22361,-0.42486 q 0.24597,0.23107 0.5963,0.36523 0.35778,0.13417 0.7081,0.13417 0.37269,0 0.60375,-0.14907 0.23852,-0.14908 0.23852,-0.43977 0,-0.28324 -0.23107,-0.42486 -0.23106,-0.14163 -0.70064,-0.27579 -0.39505,-0.11926 -0.64102,-0.23107 -0.24598,-0.11926 -0.42486,-0.33541 -0.17144,-0.21616 -0.17144,-0.56649 0,-0.52921 0.38759,-0.79754 0.3876,-0.27579 0.97644,-0.27579 0.34287,0 0.67083,0.0969 0.32797,0.0969 0.58139,0.26088 z" style="font-style:normal;font-variant:normal;font-weight:300;font-stretch:normal;font-family:Montserrat;-inkscape-font-specification:'Montserrat Light';fill:#2b629c;fill-opacity:1;stroke-width:0.55902833px" id="path1051" inkscape:connector-curvature="0"/>
      <path d="m -102.5971,221.36157 h 0.57394 v 3.92066 h -0.57394 z m 0.28324,-1.52801 q 0.16398,0 0.26833,0.11926 0.11181,0.11181 0.11181,0.28324 0,0.17144 -0.11181,0.28325 -0.10435,0.1118 -0.26833,0.1118 -0.16398,0 -0.27579,-0.1118 -0.10435,-0.11181 -0.10435,-0.28325 0,-0.17143 0.10435,-0.28324 0.11181,-0.11926 0.27579,-0.11926 z" style="font-style:normal;font-variant:normal;font-weight:300;font-stretch:normal;font-family:Montserrat;-inkscape-font-specification:'Montserrat Light';fill:#2b629c;fill-opacity:1;stroke-width:0.55902833px" id="path1053" inkscape:connector-curvature="0"/>
      <path d="m -100.56538,219.75157 h 0.581392 v 5.53066 h -0.581392 z" style="font-style:normal;font-variant:normal;font-weight:300;font-stretch:normal;font-family:Montserrat;-inkscape-font-specification:'Montserrat Light';fill:#2b629c;fill-opacity:1;stroke-width:0.55902833px" id="path1055" inkscape:connector-curvature="0"/>
      <path d="m -98.535405,221.36157 h 0.573936 v 3.92066 h -0.573936 z m 0.283241,-1.52801 q 0.163982,0 0.268334,0.11926 0.111805,0.11181 0.111805,0.28324 0,0.17144 -0.111805,0.28325 -0.104352,0.1118 -0.268334,0.1118 -0.163981,0 -0.275787,-0.1118 -0.104352,-0.11181 -0.104352,-0.28325 0,-0.17143 0.104352,-0.28324 0.111806,-0.11926 0.275787,-0.11926 z" style="font-style:normal;font-variant:normal;font-weight:300;font-stretch:normal;font-family:Montserrat;-inkscape-font-specification:'Montserrat Light';fill:#2b629c;fill-opacity:1;stroke-width:0.55902833px" id="path1057" inkscape:connector-curvature="0"/>
      <path d="m -94.990587,221.33921 q 0.931714,0 1.401298,0.5963 0.477037,0.58884 0.432315,1.60255 h -3.205096 q 0.07454,0.58139 0.46213,0.93171 0.387593,0.35033 0.961529,0.35033 0.357778,0 0.670834,-0.12672 0.313056,-0.13416 0.544121,-0.37268 l 0.320509,0.33541 q -0.283241,0.31306 -0.693195,0.4845 -0.4025,0.16398 -0.886991,0.16398 -0.573936,0 -1.021159,-0.24597 -0.439769,-0.25343 -0.685741,-0.70065 -0.245973,-0.45468 -0.245973,-1.03607 0,-0.57394 0.245973,-1.02116 0.245972,-0.45467 0.685741,-0.7081 0.447223,-0.25343 1.013705,-0.25343 z m 1.311853,1.73672 q -0.02981,-0.57394 -0.387593,-0.90935 -0.350324,-0.34288 -0.92426,-0.34288 -0.566482,0 -0.939168,0.34288 -0.372685,0.33541 -0.432315,0.90935 z" style="font-style:normal;font-variant:normal;font-weight:300;font-stretch:normal;font-family:Montserrat;-inkscape-font-specification:'Montserrat Light';fill:#2b629c;fill-opacity:1;stroke-width:0.55902833px" id="path1059" inkscape:connector-curvature="0"/>
      <path d="m -90.057047,221.33921 q 0.700649,0 1.095696,0.40996 0.395046,0.4025 0.395046,1.11805 v 2.41501 h -0.581389 v -2.26593 q 0,-0.52176 -0.298149,-0.81991 -0.290694,-0.29815 -0.812454,-0.29815 -0.573936,0.007 -0.92426,0.35778 -0.342871,0.34287 -0.395047,0.92426 v 2.10195 h -0.581389 v -3.92066 h 0.581389 v 0.86464 q 0.4025,-0.87209 1.520557,-0.887 z" style="font-style:normal;font-variant:normal;font-weight:300;font-stretch:normal;font-family:Montserrat;-inkscape-font-specification:'Montserrat Light';fill:#2b629c;fill-opacity:1;stroke-width:0.55902833px" id="path1061" inkscape:connector-curvature="0"/>
      <path d="m -85.240082,225.01389 q -0.439769,0.2907 -0.901899,0.2907 -0.447222,0 -0.715556,-0.27579 -0.268334,-0.28324 -0.268334,-0.83482 v -2.25847 h -0.566482 v -0.45468 h 0.566482 v -1.02861 h 0.573936 v 1.02861 h 1.24477 v 0.45468 h -1.24477 v 2.16158 q 0,0.35032 0.126713,0.5143 0.134167,0.15653 0.395047,0.15653 0.305602,-0.0149 0.626112,-0.20125 z" style="font-style:normal;font-variant:normal;font-weight:300;font-stretch:normal;font-family:Montserrat;-inkscape-font-specification:'Montserrat Light';fill:#2b629c;fill-opacity:1;stroke-width:0.55902833px" id="path1063" inkscape:connector-curvature="0"/>
      <path d="m -82.061773,222.80014 q 0.163981,0 0.268333,0.11926 0.111806,0.11181 0.111806,0.28324 0,0.17144 -0.111806,0.28324 -0.104352,0.11181 -0.268333,0.11181 -0.163982,0 -0.275788,-0.11181 -0.104352,-0.1118 -0.104352,-0.28324 0,-0.17143 0.104352,-0.28324 0.111806,-0.11926 0.275788,-0.11926 z" style="font-style:normal;font-variant:normal;font-weight:300;font-stretch:normal;font-family:Montserrat;-inkscape-font-specification:'Montserrat Light';fill:#2b629c;fill-opacity:1;stroke-width:0.55902833px" id="path1065" inkscape:connector-curvature="0"/>
      <path d="m -74.862185,225.28223 -1.095696,-1.66963 q -0.208704,0.0149 -0.335417,0.0149 h -1.38639 v 1.65473 h -0.596297 v -5.2176 h 1.982687 q 0.976436,0 1.513104,0.46213 0.544121,0.45468 0.544121,1.28949 0,0.64102 -0.305603,1.07334 -0.305602,0.43231 -0.872084,0.6112 l 1.229863,1.78144 z m -1.431113,-2.2063 q 0.715557,0 1.095696,-0.31306 0.387593,-0.32051 0.387593,-0.93171 0,-0.5963 -0.387593,-0.9019 -0.380139,-0.31306 -1.095696,-0.31306 h -1.38639 v 2.45973 z" style="font-style:normal;font-variant:normal;font-weight:300;font-stretch:normal;font-family:Montserrat;-inkscape-font-specification:'Montserrat Light';fill:#2b629c;fill-opacity:1;stroke-width:0.55902833px" id="path1067" inkscape:connector-curvature="0"/>
      <path d="m -71.421137,221.33921 q 0.931714,0 1.401298,0.5963 0.477037,0.58884 0.432315,1.60255 h -3.205096 q 0.07454,0.58139 0.46213,0.93171 0.387593,0.35033 0.961529,0.35033 0.357778,0 0.670834,-0.12672 0.313056,-0.13416 0.544121,-0.37268 l 0.32051,0.33541 q -0.283241,0.31306 -0.693195,0.4845 -0.402501,0.16398 -0.886992,0.16398 -0.573936,0 -1.021158,-0.24597 -0.439769,-0.25343 -0.685742,-0.70065 -0.245972,-0.45468 -0.245972,-1.03607 0,-0.57394 0.245972,-1.02116 0.245973,-0.45467 0.685742,-0.7081 0.447222,-0.25343 1.013704,-0.25343 z m 1.311853,1.73672 q -0.02981,-0.57394 -0.387593,-0.90935 -0.350324,-0.34288 -0.92426,-0.34288 -0.566482,0 -0.939167,0.34288 -0.372686,0.33541 -0.432316,0.90935 z" style="font-style:normal;font-variant:normal;font-weight:300;font-stretch:normal;font-family:Montserrat;-inkscape-font-specification:'Montserrat Light';fill:#2b629c;fill-opacity:1;stroke-width:0.55902833px" id="path1069" inkscape:connector-curvature="0"/>
      <path d="m -66.15218,225.28223 v -0.61121 q -0.469583,0.63357 -1.438566,0.63357 -0.395046,0 -0.700649,-0.15653 -0.305602,-0.15653 -0.469583,-0.42486 -0.163982,-0.26834 -0.163982,-0.60375 0,-0.51431 0.387593,-0.81246 0.387593,-0.3056 1.080788,-0.31305 h 1.289492 v -0.24598 q 0,-0.43976 -0.268334,-0.67828 -0.268333,-0.24598 -0.782639,-0.24598 -0.603751,0 -1.24477,0.45468 l -0.245972,-0.40995 q 0.417407,-0.27579 0.767732,-0.4025 0.357778,-0.12672 0.834815,-0.12672 0.72301,0 1.110603,0.35778 0.395047,0.35778 0.402501,0.99135 l 0.0075,2.59389 z m -1.32676,-0.46213 q 0.499399,0 0.849723,-0.23107 0.357778,-0.23852 0.469584,-0.65593 v -0.47703 h -1.222409 q -0.998797,0 -0.998797,0.64102 0,0.32796 0.245972,0.52921 0.245973,0.1938 0.655927,0.1938 z" style="font-style:normal;font-variant:normal;font-weight:300;font-stretch:normal;font-family:Montserrat;-inkscape-font-specification:'Montserrat Light';fill:#2b629c;fill-opacity:1;stroke-width:0.55902833px" id="path1071" inkscape:connector-curvature="0"/>
      <path d="m -64.25765,219.75157 h 0.581389 v 5.53066 h -0.581389 z" style="font-style:normal;font-variant:normal;font-weight:300;font-stretch:normal;font-family:Montserrat;-inkscape-font-specification:'Montserrat Light';fill:#2b629c;fill-opacity:1;stroke-width:0.55902833px" id="path1073" inkscape:connector-curvature="0"/>
      <path d="m -62.458746,222.81505 h 1.751622 v 0.42486 h -1.751622 z" style="font-style:normal;font-variant:normal;font-weight:300;font-stretch:normal;font-family:Montserrat;-inkscape-font-specification:'Montserrat Light';fill:#2b629c;fill-opacity:1;stroke-width:0.55902833px" id="path1075" inkscape:connector-curvature="0"/>
      <path d="m -57.492477,225.01389 q -0.439769,0.2907 -0.901899,0.2907 -0.447223,0 -0.715557,-0.27579 -0.268333,-0.28324 -0.268333,-0.83482 v -2.25847 h -0.566482 v -0.45468 h 0.566482 v -1.02861 h 0.573936 v 1.02861 h 1.244769 v 0.45468 h -1.244769 v 2.16158 q 0,0.35032 0.126713,0.5143 0.134166,0.15653 0.395046,0.15653 0.305603,-0.0149 0.626112,-0.20125 z" style="font-style:normal;font-variant:normal;font-weight:300;font-stretch:normal;font-family:Montserrat;-inkscape-font-specification:'Montserrat Light';fill:#2b629c;fill-opacity:1;stroke-width:0.55902833px" id="path1077" inkscape:connector-curvature="0"/>
      <path d="m -56.608281,221.36157 h 0.573936 v 3.92066 h -0.573936 z m 0.283241,-1.52801 q 0.163982,0 0.268334,0.11926 0.111805,0.11181 0.111805,0.28324 0,0.17144 -0.111805,0.28325 -0.104352,0.1118 -0.268334,0.1118 -0.163981,0 -0.275787,-0.1118 -0.104352,-0.11181 -0.104352,-0.28325 0,-0.17143 0.104352,-0.28324 0.111806,-0.11926 0.275787,-0.11926 z" style="font-style:normal;font-variant:normal;font-weight:300;font-stretch:normal;font-family:Montserrat;-inkscape-font-specification:'Montserrat Light';fill:#2b629c;fill-opacity:1;stroke-width:0.55902833px" id="path1079" inkscape:connector-curvature="0"/>
      <path d="m -49.58258,221.33921 q 0.685741,0 1.073334,0.40996 0.387593,0.4025 0.387593,1.11805 v 2.41501 h -0.581389 v -2.26593 q 0,-0.52922 -0.290695,-0.82736 -0.290695,-0.29815 -0.797547,-0.29815 -0.603751,0.0149 -0.946621,0.41741 -0.335417,0.39504 -0.335417,1.04352 v 1.93051 h -0.588843 v -2.26593 q 0,-0.52922 -0.290695,-0.82736 -0.283241,-0.29815 -0.797547,-0.29815 -0.596297,0.0149 -0.946622,0.41741 -0.34287,0.4025 -0.34287,1.04352 v 1.93051 h -0.573936 v -3.92066 h 0.573936 v 0.887 q 0.193796,-0.44723 0.573935,-0.67084 0.38014,-0.23106 0.924261,-0.23852 0.551574,0 0.916806,0.26834 0.365232,0.26833 0.491945,0.75282 0.178889,-0.50685 0.573936,-0.76028 0.4025,-0.25342 0.976436,-0.26088 z" style="font-style:normal;font-variant:normal;font-weight:300;font-stretch:normal;font-family:Montserrat;-inkscape-font-specification:'Montserrat Light';fill:#2b629c;fill-opacity:1;stroke-width:0.55902833px" id="path1081" inkscape:connector-curvature="0"/>
      <path d="m -45.274912,221.33921 q 0.931714,0 1.401298,0.5963 0.477037,0.58884 0.432315,1.60255 h -3.205096 q 0.07454,0.58139 0.46213,0.93171 0.387593,0.35033 0.961529,0.35033 0.357778,0 0.670834,-0.12672 0.313056,-0.13416 0.544121,-0.37268 l 0.32051,0.33541 q -0.283241,0.31306 -0.693195,0.4845 -0.402501,0.16398 -0.886992,0.16398 -0.573936,0 -1.021158,-0.24597 -0.439769,-0.25343 -0.685742,-0.70065 -0.245972,-0.45468 -0.245972,-1.03607 0,-0.57394 0.245972,-1.02116 0.245973,-0.45467 0.685742,-0.7081 0.447222,-0.25343 1.013704,-0.25343 z m 1.311853,1.73672 q -0.02981,-0.57394 -0.387593,-0.90935 -0.350324,-0.34288 -0.92426,-0.34288 -0.566482,0 -0.939167,0.34288 -0.372686,0.33541 -0.432316,0.90935 z" style="font-style:normal;font-variant:normal;font-weight:300;font-stretch:normal;font-family:Montserrat;-inkscape-font-specification:'Montserrat Light';fill:#2b629c;fill-opacity:1;stroke-width:0.55902833px" id="path1083" inkscape:connector-curvature="0"/>
    </g>
    <g aria-label="TM" style="font-style:normal;font-variant:normal;font-weight:normal;font-stretch:normal;font-size:3.52777767px;line-height:125%;font-family:Montserrat;-inkscape-font-specification:Montserrat;letter-spacing:0px;word-spacing:0px;fill:#3c3c3b;fill-opacity:1;stroke:none;stroke-width:0.26458332px;stroke-linecap:butt;stroke-linejoin:miter;stroke-opacity:1" id="text1021" transform="matrix(0.7585025,0,0,0.7585025,-58.085612,54.936886)">
      <path d="m -58.699109,191.45155 v 2.08492 h -0.416278 v -2.08492 h -0.747889 v -0.381 h 1.912055 v 0.381 z" style="fill:#3c3c3b;fill-opacity:1;stroke-width:0.26458332px" id="path1086" inkscape:connector-curvature="0"/>
      <path d="m -57.085096,193.53647 h -0.416278 v -2.46592 h 0.649111 l 0.744361,1.5487 0.744361,-1.5487 h 0.645584 v 2.46592 h -0.416278 v -1.92617 l -0.860778,1.71097 h -0.232833 l -0.85725,-1.71097 z" style="fill:#3c3c3b;fill-opacity:1;stroke-width:0.26458332px" id="path1088" inkscape:connector-curvature="0"/>
    </g>
  </g>
</svg>